<svg width="18" height="18" viewBox="0 0 18 18" fill="none" xmlns="http://www.w3.org/2000/svg">
<path d="M15.2 9.83334C15.0167 9.83334 14.825 9.775 14.6417 9.73334C14.2704 9.65152 13.9056 9.5429 13.55 9.40834C13.1634 9.26769 12.7385 9.275 12.3569 9.42884C11.9754 9.58269 11.6643 9.8722 11.4834 10.2417L11.3 10.6167C10.4884 10.1652 9.74251 9.60436 9.08336 8.95C8.429 8.29085 7.86821 7.545 7.41669 6.73334L7.76669 6.5C8.13616 6.3191 8.42567 6.00794 8.57952 5.62641C8.73336 5.24488 8.74067 4.81993 8.60002 4.43334C8.46771 4.07702 8.35914 3.71233 8.27502 3.34167C8.23336 3.15834 8.20002 2.96667 8.17502 2.775C8.07383 2.18802 7.76638 1.65645 7.30804 1.27603C6.8497 0.895616 6.2706 0.691343 5.67502 0.700002H3.17502C2.81588 0.69663 2.46023 0.77068 2.13228 0.917111C1.80433 1.06354 1.51178 1.27892 1.27455 1.54857C1.03732 1.81823 0.860968 2.13583 0.757513 2.47976C0.654058 2.8237 0.625922 3.18588 0.675023 3.54167C1.11897 7.03282 2.71338 10.2766 5.2064 12.7605C7.69942 15.2445 10.9489 16.8271 14.4417 17.2583H14.7584C15.3729 17.2592 15.9662 17.0338 16.425 16.625C16.6887 16.3892 16.8993 16.1002 17.0429 15.7769C17.1866 15.4537 17.26 15.1037 17.2584 14.75V12.25C17.2481 11.6712 17.0374 11.1138 16.662 10.6731C16.2866 10.2323 15.7699 9.93552 15.2 9.83334ZM15.6167 14.8333C15.6165 14.9517 15.5912 15.0686 15.5423 15.1764C15.4935 15.2841 15.4222 15.3802 15.3334 15.4583C15.2402 15.5387 15.1314 15.5988 15.0137 15.6347C14.896 15.6705 14.7722 15.6814 14.65 15.6667C11.5291 15.2665 8.63022 13.8387 6.41062 11.6086C4.19102 9.37842 2.77703 6.47278 2.39169 3.35C2.37843 3.22793 2.39005 3.10444 2.42586 2.98699C2.46167 2.86955 2.52091 2.76058 2.60002 2.66667C2.67811 2.57778 2.77424 2.50654 2.88201 2.45768C2.98977 2.40883 3.1067 2.38349 3.22502 2.38334H5.72502C5.91881 2.37902 6.10804 2.4424 6.26014 2.56256C6.41224 2.68272 6.5177 2.85214 6.55836 3.04167C6.59169 3.26945 6.63336 3.49445 6.68336 3.71667C6.77962 4.15596 6.90774 4.58765 7.06669 5.00834L5.90002 5.55C5.80027 5.59577 5.71054 5.66079 5.63599 5.74133C5.56143 5.82187 5.50352 5.91635 5.46558 6.01933C5.42764 6.12231 5.41042 6.23178 5.4149 6.34144C5.41938 6.4511 5.44547 6.55879 5.49169 6.65834C6.69102 9.2273 8.75606 11.2923 11.325 12.4917C11.5279 12.575 11.7555 12.575 11.9584 12.4917C12.0623 12.4545 12.1578 12.397 12.2393 12.3227C12.3209 12.2483 12.3868 12.1584 12.4334 12.0583L12.95 10.8917C13.3808 11.0457 13.8205 11.1737 14.2667 11.275C14.4889 11.325 14.7139 11.3667 14.9417 11.4C15.1312 11.4407 15.3006 11.5461 15.4208 11.6982C15.541 11.8503 15.6043 12.0395 15.6 12.2333L15.6167 14.8333Z" fill="white"/>
</svg>
