<svg width="80" height="80" viewBox="0 0 80 80" fill="none" xmlns="http://www.w3.org/2000/svg">
<g filter="url(#filter0_d)">
<circle cx="40" cy="36" r="24" fill="white"/>
</g>
<path d="M45 34.9H37.4L40.7 31.6C41.1 31.2 41.1 30.6 40.7 30.2C40.3 29.8 39.7 29.8 39.3 30.2L34.3 35.2C33.9 35.6 33.9 36.2 34.3 36.6L39.3 41.6C39.7 42 40.3 42 40.7 41.6C41.1 41.2 41.1 40.6 40.7 40.2L37.4 36.9H45C45.6 36.9 46 36.5 46 35.9C46 35.4 45.6 34.9 45 34.9Z" fill="#42556B"/>
<defs>
<filter id="filter0_d" x="0" y="0" width="80" height="80" filterUnits="userSpaceOnUse" color-interpolation-filters="sRGB">
<feFlood flood-opacity="0" result="BackgroundImageFix"/>
<feColorMatrix in="SourceAlpha" type="matrix" values="0 0 0 0 0 0 0 0 0 0 0 0 0 0 0 0 0 0 127 0" result="hardAlpha"/>
<feOffset dy="4"/>
<feGaussianBlur stdDeviation="8"/>
<feComposite in2="hardAlpha" operator="out"/>
<feColorMatrix type="matrix" values="0 0 0 0 0.0795196 0 0 0 0 0.13886 0 0 0 0 0.254051 0 0 0 0.08 0"/>
<feBlend mode="normal" in2="BackgroundImageFix" result="effect1_dropShadow"/>
<feBlend mode="normal" in="SourceGraphic" in2="effect1_dropShadow" result="shape"/>
</filter>
</defs>
</svg>
