<svg width="80" height="80" viewBox="0 0 80 80" fill="none" xmlns="http://www.w3.org/2000/svg">
<g filter="url(#filter0_d)">
<circle cx="40" cy="36" r="24" fill="white"/>
</g>
<path d="M46.7001 38.1001C46.5001 38.0001 46.2001 38.0001 46.0001 38.0001C44.8001 38.0001 43.7001 38.5001 42.9001 39.5001L37.8001 37.2001C38.0001 36.5001 38.0001 35.7001 37.8001 34.9001L42.9001 32.6001C44.3001 34.3001 46.8001 34.5001 48.5001 33.1001C50.2001 31.7001 50.4001 29.2001 49.0001 27.5001C47.6001 25.8001 45.1001 25.6001 43.4001 27.0001C42.5001 27.7001 42.0001 28.8001 42.0001 30.0001C42.0001 30.2001 42.0001 30.5001 42.1001 30.7001L36.8001 33.1001C35.2001 31.6001 32.7001 31.6001 31.1001 33.2001C29.6001 34.8001 29.6001 37.3001 31.2001 38.9001C32.8001 40.4001 35.2001 40.4001 36.8001 38.9001L42.1001 41.3001C41.7001 43.5001 43.1001 45.6001 45.3001 45.9001C47.5001 46.3001 49.6001 44.9001 49.9001 42.7001C50.3001 40.5001 48.9001 38.5001 46.7001 38.1001Z" fill="#25A0F2"/>
<defs>
<filter id="filter0_d" x="0" y="0" width="80" height="80" filterUnits="userSpaceOnUse" color-interpolation-filters="sRGB">
<feFlood flood-opacity="0" result="BackgroundImageFix"/>
<feColorMatrix in="SourceAlpha" type="matrix" values="0 0 0 0 0 0 0 0 0 0 0 0 0 0 0 0 0 0 127 0" result="hardAlpha"/>
<feOffset dy="4"/>
<feGaussianBlur stdDeviation="8"/>
<feComposite in2="hardAlpha" operator="out"/>
<feColorMatrix type="matrix" values="0 0 0 0 0.0795196 0 0 0 0 0.13886 0 0 0 0 0.254051 0 0 0 0.08 0"/>
<feBlend mode="normal" in2="BackgroundImageFix" result="effect1_dropShadow"/>
<feBlend mode="normal" in="SourceGraphic" in2="effect1_dropShadow" result="shape"/>
</filter>
</defs>
</svg>
