<svg width="14" height="14" viewBox="0 0 14 14" fill="none" xmlns="http://www.w3.org/2000/svg">
<path fill-rule="evenodd" clip-rule="evenodd" d="M6.48826 9.51112C6.32626 9.72312 6.01693 9.71778 5.8616 9.49978L3.66693 7.09245L4.2216 6.44445L6.16826 7.67045L9.77893 4.49978L10.3336 5.14845L6.48826 9.51112ZM13.3509 6.23778L12.3336 5.21978V3.10645C12.3336 2.49578 11.8376 1.99978 11.2263 1.99978H9.1136L7.76226 0.649118C7.34093 0.228451 6.65893 0.228451 6.2376 0.649118L4.88693 1.99978H2.7736C2.16226 1.99978 1.66693 2.49578 1.66693 3.10645V5.21978L0.648932 6.23778C0.227598 6.65912 0.227598 7.34112 0.648932 7.76179L1.66693 8.77979V10.8938C1.66693 11.5045 2.16226 11.9998 2.7736 11.9998H4.88693L6.2376 13.3511C6.65893 13.7718 7.34093 13.7718 7.76226 13.3511L9.1136 11.9998H11.2263C11.8376 11.9998 12.3336 11.5045 12.3336 10.8938V8.77979L13.3509 7.76179C13.7723 7.34112 13.7723 6.65912 13.3509 6.23778Z" fill="#25A0F2"/>
</svg>
