<svg width="16" height="18" viewBox="0 0 16 18" fill="none" xmlns="http://www.w3.org/2000/svg">
<path d="M15.05 7.02499C14.933 5.80742 14.5027 4.64089 13.801 3.63901C13.0993 2.63712 12.1501 1.83402 11.0459 1.3079C9.9416 0.781789 8.71992 0.550593 7.49979 0.636829C6.27965 0.723065 5.10263 1.12379 4.08336 1.79999C3.20769 2.38553 2.47257 3.15774 1.93081 4.06115C1.38905 4.96456 1.0541 5.97675 0.950023 7.02499C0.847925 8.06637 0.978918 9.11742 1.3335 10.1019C1.68808 11.0864 2.25735 11.9795 3.00002 12.7167L7.41669 17.1417C7.49416 17.2198 7.58633 17.2818 7.68788 17.3241C7.78943 17.3664 7.89835 17.3882 8.00836 17.3882C8.11837 17.3882 8.22729 17.3664 8.32884 17.3241C8.43039 17.2818 8.52255 17.2198 8.60002 17.1417L13 12.7167C13.7427 11.9795 14.312 11.0864 14.6665 10.1019C15.0211 9.11742 15.1521 8.06637 15.05 7.02499ZM11.8334 11.5417L8.00002 15.375L4.16669 11.5417C3.60176 10.9767 3.16902 10.2936 2.89958 9.54146C2.63013 8.78932 2.53068 7.98682 2.60836 7.19166C2.68654 6.38425 2.94316 5.60429 3.35967 4.9082C3.77617 4.2121 4.34215 3.61725 5.01669 3.16666C5.90081 2.57936 6.93861 2.26607 8.00002 2.26607C9.06143 2.26607 10.0992 2.57936 10.9834 3.16666C11.6558 3.61551 12.2206 4.20773 12.637 4.90077C13.0534 5.59382 13.3111 6.37049 13.3917 7.17499C13.4719 7.97285 13.3737 8.77856 13.1042 9.53378C12.8347 10.289 12.4006 10.9749 11.8334 11.5417ZM8.00002 3.99999C7.25834 3.99999 6.53332 4.21993 5.91664 4.63198C5.29995 5.04404 4.8193 5.62971 4.53548 6.31493C4.25165 7.00015 4.17738 7.75415 4.32208 8.48158C4.46677 9.20901 4.82393 9.8772 5.34837 10.4016C5.87282 10.9261 6.54101 11.2832 7.26843 11.4279C7.99586 11.5726 8.74986 11.4984 9.43509 11.2145C10.1203 10.9307 10.706 10.4501 11.118 9.83338C11.5301 9.2167 11.75 8.49167 11.75 7.74999C11.7478 6.75611 11.352 5.80356 10.6492 5.10077C9.94646 4.39799 8.99391 4.00219 8.00002 3.99999ZM8.00002 9.83333C7.58798 9.83333 7.18519 9.71114 6.84259 9.48222C6.49998 9.2533 6.23296 8.92793 6.07527 8.54725C5.91759 8.16657 5.87633 7.74768 5.95672 7.34355C6.03711 6.93943 6.23552 6.56821 6.52688 6.27685C6.81824 5.98549 7.18946 5.78708 7.59358 5.70669C7.99771 5.6263 8.4166 5.66756 8.79728 5.82524C9.17796 5.98293 9.50333 6.24995 9.73225 6.59256C9.96117 6.93516 10.0834 7.33795 10.0834 7.74999C10.0834 8.30253 9.86386 8.83243 9.47316 9.22313C9.08246 9.61383 8.55256 9.83333 8.00002 9.83333Z" fill="#9CA9B8"/>
</svg>
